{
.appVersion = "965";
copyright = "Copyright 2017 Google Inc. All Rights Reserved.";
customParameters = (
{
name = glyphOrder;
value = (
.notdef,
NULL,
CR,
space,
u10840,
u10841,
u10842,
u10843,
u10844,
u10845,
u10846,
u10847,
u10848,
u10849,
u1084A,
u1084B,
u1084C,
u1084D,
u1084E,
u1084F,
u10850,
u10851,
u10852,
u10853,
u10854,
u10855,
u10857,
u10858,
u10859,
u1085A,
u1085B,
u1085C,
u1085D,
u1085E,
u1085F,
uni00A0
);
},
{
name = description;
value = "Designed by Monotype design team.";
},
{
name = license;
value = "This Font Software is licensed under the SIL Open Font License, Version 1.1. This Font Software is distributed on an \"AS IS\" BASIS, WITHOUT WARRANTIES OR CONDITIONS OF ANY KIND, either express or implied. See the SIL Open Font License for the specific language, permissions and limitations governing your use of this Font Software.";
},
{
name = licenseURL;
value = "http://scripts.sil.org/OFL";
},
{
name = vendorID;
value = GOOG;
},
{
name = unicodeRanges;
value = (
0,
1,
57
);
},
{
name = trademark;
value = "Noto is a trademark of Google Inc.";
},
{
name = "Has WWS Names";
value = 1;
},
{
name = versionString;
value = "Version 1.900";
},
{
name = fsType;
value = (
);
},
{
name = codePageRanges;
value = (
"1252"
);
}
);
date = "2017-01-25 21:25:50 +0000";
designer = "Monotype Design Team";
designerURL = "http://www.monotype.com/studio";
disablesAutomaticAlignment = 1;
disablesNiceNames = 1;
familyName = "Noto Sans Imperial Aramaic";
fontMaster = (
{
alignmentZones = (
"{1069, 15}",
"{700, 15}",
"{536, 15}",
"{0, -15}",
"{-293, -15}"
);
ascender = 1069;
capHeight = 714;
customParameters = (
{
name = typoAscender;
value = 1069;
},
{
name = typoDescender;
value = -293;
},
{
name = typoLineGap;
value = 0;
},
{
name = winAscent;
value = 1069;
},
{
name = winDescent;
value = 293;
},
{
name = hheaAscender;
value = 1069;
},
{
name = hheaDescender;
value = -293;
},
{
name = hheaLineGap;
value = 0;
},
{
name = underlinePosition;
value = -100;
},
{

glyphs = (
{
glyphname = .notdef;
lastChange = "2017-01-25 21:52:23 +0000";
layers = (
{
layerId = UUID0;
paths = (
{
closed = 1;
nodes = (
"450 0 LINE",
"450 714 LINE",
"50 714 LINE",
"50 0 LINE"
);
},
{
closed = 1;
nodes = (
"98 666 LINE",
"402 666 LINE",
"402 48 LINE",
"98 48 LINE"
);
}
);
width = 500;
}
);
},
{
glyphname = u10840;
lastChange = "2017-01-25 21:52:23 +0000";
layers = (
{
layerId = UUID0;
paths = (
{
closed = 1;
nodes = (
"631 15 LINE",
"620 51 OFFCURVE",
"618 111 OFFCURVE",
"618 167 CURVE SMOOTH",
"618 303 OFFCURVE",
"659 491 OFFCURVE",
"780 671 CURVE",
"715 724 LINE",
"596 561 OFFCURVE",
"537 355 OFFCURVE",
"530 218 CURVE",
"514 251 OFFCURVE",
"496 283 OFFCURVE",
"478 316 CURVE SMOOTH",
"403 453 OFFCURVE",
"310 591 OFFCURVE",
"197 729 CURVE",
"129 684 LINE",
"159 632 OFFCURVE",
"160 558 OFFCURVE",
"160 523 CURVE SMOOTH",
"160 420 OFFCURVE",
"119 313 OFFCURVE",
"49 253 CURVE",
"114 195 LINE",
"184 261 OFFCURVE",
"247 373 OFFCURVE",
"247 484 CURVE SMOOTH",
"247 498 OFFCURVE",
"246 514 OFFCURVE",
"244 531 CURVE",
"303 446 OFFCURVE",
"357 360 OFFCURVE",
"413 266 CURVE SMOOTH",
"468 174 OFFCURVE",
"521 70 OFFCURVE",
"568 -24 CURVE"
);
}
);
width = 829;
}
);
unicode = 10840;
},
{
glyphname = u10841;
lastChange = "2017-01-25 21:52:23 +0000";
layers = (
{
layerId = UUID0;
paths = (
{
closed = 1;
nodes = (
"579 85 OFFCURVE",
"646 298 OFFCURVE",
"646 584 CURVE SMOOTH",
"646 629 OFFCURVE",
"645 676 OFFCURVE",
"641 724 CURVE",
"556 698 LINE",
"507 620 OFFCURVE",
"360 561 OFFCURVE",
"286 561 CURVE SMOOTH",
"206 561 OFFCURVE",
"164 588 OFFCURVE",
"132 724 CURVE",
"49 698 LINE",
"65 620 OFFCURVE",
"106 480 OFFCURVE",
"273 480 CURVE SMOOTH",
"364 480 OFFCURVE",
"470 514 OFFCURVE",
"557 589 CURVE",
"550 341 OFFCURVE",
"521 166 OFFCURVE",
"78 54 CURVE",
"106 -24 LINE"
);
}
);
width = 724;
}
);
unicode = 10841;
},
{
glyphname = u10842;
lastChange = "2017-01-25 21:52:23 +0000";
layers = (
{
layerId = UUID0;
paths = (
{
closed = 1;
nodes = (
"814 54 LINE",
"566 190 OFFCURVE",
"557 434 OFFCURVE",
"557 603 CURVE SMOOTH",
"557 617 OFFCURVE",
"558 690 OFFCURVE",
"560 724 CURVE",
"473 698 LINE",
"473 694 OFFCURVE",
"467 680 OFFCURVE",
"467 675 CURVE",
"424 577 OFFCURVE",
"228 301 OFFCURVE",
"20 201 CURVE",
"72 131 LINE",
"247 227 OFFCURVE",
"375 377 OFFCURVE",
"470 513 CURVE",
"477 343 OFFCURVE",
"529 94 OFFCURVE",
"785 -24 CURVE"
);
}
);
width = 829;
}
);
unicode = 10842;
},
{
glyphname = u10843;
lastChange = "2017-01-25 21:52:23 +0000";
layers = (
{
layerId = UUID0;
paths = (
{
closed = 1;
nodes = (
"483 160 OFFCURVE",
"509 523 OFFCURVE",
"555 704 CURVE",
"479 725 LINE",
"476 718 OFFCURVE",
"474 711 OFFCURVE",
"472 705 CURVE",
"401 583 OFFCURVE",
"285 557 OFFCURVE",
"229 557 CURVE SMOOTH",
"168 557 OFFCURVE",
"119 583 OFFCURVE",
"103 714 CURVE",
"20 688 LINE",
"33 557 OFFCURVE",
"90 477 OFFCURVE",
"221 477 CURVE SMOOTH",
"304 477 OFFCURVE",
"386 512 OFFCURVE",
"441 558 CURVE",
"407 346 OFFCURVE",
"389 55 OFFCURVE",
"389 0 CURVE",
"471 -24 LINE"
);
}
);
width = 633;
}
);
unicode = 10843;
},
{
glyphname = u10844;
lastChange = "2017-01-25 21:52:23 +0000";
layers = (
{
layerId = UUID0;
paths = (
{
closed = 1;
nodes = (
"733 210 OFFCURVE",
"746 372 OFFCURVE",
"746 447 CURVE SMOOTH",
"746 475 OFFCURVE",
"711 546 OFFCURVE",
"667 610 CURVE SMOOTH",
"626 669 OFFCURVE",
"582 725 OFFCURVE",
"542 725 CURVE SMOOTH",
"502 725 OFFCURVE",
"376 676 OFFCURVE",
"273 629 CURVE SMOOTH",
"49 528 LINE",
"78 460 LINE",
"273 547 LINE SMOOTH",
"281 550 OFFCURVE",
"290 555 OFFCURVE",
"300 559 CURVE",
"289 480 OFFCURVE",
"252 328 OFFCURVE",
"145 162 CURVE",
"212 109 LINE",
"354 318 OFFCURVE",
"385 506 OFFCURVE",
"391 599 CURVE",
"448 623 OFFCURVE",
"503 644 OFFCURVE",
"526 644 CURVE SMOOTH",
"558 644 OFFCURVE",
"658 475 OFFCURVE",
"658 424 CURVE SMOOTH",
"658 380 OFFCURVE",
"644 239 OFFCURVE",
"507 28 CURVE",
"574 -24 LINE"
);
}
);
width = 824;
}
);
unicode = 10844;
},
{
glyphname = u10845;
lastChange = "2017-01-25 21:52:23 +0000";
layers = (
{
layerId = UUID0;
paths = (
{
closed = 1;
nodes = (
"341 88 OFFCURVE",
"349 272 OFFCURVE",
"349 379 CURVE SMOOTH",
"349 445 LINE SMOOTH",
"349 607 OFFCURVE",
"295 723 OFFCURVE",
"142 723 CURVE SMOOTH",
"109 723 OFFCURVE",
"63 717 OFFCURVE",
"29 708 CURVE",
"37 633 LINE",
"39 633 LINE",
"67 639 OFFCURVE",
"96 643 OFFCURVE",
"125 643 CURVE SMOOTH",
"259 643 OFFCURVE",
"261 523 OFFCURVE",
"261 376 CURVE SMOOTH",
"261 236 OFFCURVE",
"246 89 OFFCURVE",
"230 0 CURVE",
"317 -24 LINE"
);
}
);
width = 427;
}
);
unicode = 10845;
},
{
glyphname = u10846;
lastChange = "2017-01-25 21:52:23 +0000";
layers = (
{
layerId = UUID0;
paths = (
{
closed = 1;
nodes = (
"224 113 OFFCURVE",
"236 327 OFFCURVE",
"236 501 CURVE SMOOTH",
"236 588 OFFCURVE",
"231 688 OFFCURVE",
"228 714 CURVE",
"141 724 LINE",
"144 687 OFFCURVE",
"148 569 OFFCURVE",
"148 504 CURVE SMOOTH",
"148 321 OFFCURVE",
"132 117 OFFCURVE",
"112 0 CURVE",
"199 -24 LINE"
);
}
);
width = 363;
}
);
unicode = 10846;
},
{
glyphname = u10847;
lastChange = "2017-01-25 21:52:23 +0000";
layers = (
{
layerId = UUID0;
paths = (
{
closed = 1;
nodes = (
"251 147 OFFCURVE",
"285 412 OFFCURVE",
"285 539 CURVE SMOOTH",
"285 561 OFFCURVE",
"285 577 OFFCURVE",
"284 591 CURVE",
"313 585 OFFCURVE",
"342 582 OFFCURVE",
"372 582 CURVE SMOOTH",
"440 582 OFFCURVE",
"499 594 OFFCURVE",
"561 619 CURVE",
"572 580 OFFCURVE",
"577 529 OFFCURVE",
"577 467 CURVE SMOOTH",
"577 371 OFFCURVE",
"551 233 OFFCURVE",
"486 104 CURVE",
"561 58 LINE",
"635 193 OFFCURVE",
"665 334 OFFCURVE",
"665 486 CURVE SMOOTH",
"665 550 OFFCURVE",
"657 655 OFFCURVE",
"608 726 CURVE",
"544 682 OFFCURVE",
"435 663 OFFCURVE",
"390 663 CURVE SMOOTH",
"279 663 OFFCURVE",
"189 705 OFFCURVE",
"141 764 CURVE",
"92 703 LINE",
"115 672 OFFCURVE",
"150 644 OFFCURVE",
"194 623 CURVE",
"196 601 OFFCURVE",
"197 580 OFFCURVE",
"197 573 CURVE SMOOTH",
"197 434 OFFCURVE",
"169 187 OFFCURVE",
"20 37 CURVE",
"83 -24 LINE"
);
}
);
width = 743;
}
);
unicode = 10847;
},
{
glyphname = u10848;
lastChange = "2017-01-25 21:52:23 +0000";
layers = (
{
layerId = UUID0;
paths = (
{
closed = 1;
nodes = (
"586 -21 OFFCURVE",
"637 237 OFFCURVE",
"637 440 CURVE SMOOTH",
"637 537 OFFCURVE",
"612 570 OFFCURVE",
"563 570 CURVE SMOOTH",
"542 570 OFFCURVE",
"514 564 OFFCURVE",
"478 554 CURVE SMOOTH",
"436 542 OFFCURVE",
"388 523 OFFCURVE",
"360 512 CURVE",
"381 441 LINE",
"445 465 OFFCURVE",
"493 484 OFFCURVE",
"509 484 CURVE SMOOTH",
"525 484 OFFCURVE",
"549 484 OFFCURVE",
"549 411 CURVE SMOOTH",
"549 256 OFFCURVE",
"503 59 OFFCURVE",
"345 59 CURVE SMOOTH",
"220 59 OFFCURVE",
"166 198 OFFCURVE",
"166 338 CURVE SMOOTH",
"166 477 OFFCURVE",
"203 569 OFFCURVE",
"316 658 CURVE",
"265 724 LINE",
"137 620 OFFCURVE",
"78 510 OFFCURVE",
"78 340 CURVE SMOOTH",
"78 168 OFFCURVE",
"155 -21 OFFCURVE",
"337 -21 CURVE SMOOTH"
);
}
);
width = 715;
}
);
unicode = 10848;
},
{
glyphname = u10849;
lastChange = "2017-01-25 21:52:23 +0000";
layers = (
{
layerId = UUID0;
paths = (
{
closed = 1;
nodes = (
"571 448 LINE",
"444 518 OFFCURVE",
"388 607 OFFCURVE",
"350 708 CURVE",
"278 740 LINE",
"232 678 OFFCURVE",
"148 586 OFFCURVE",
"49 506 CURVE",
"97 433 LINE",
"175 495 OFFCURVE",
"237 558 OFFCURVE",
"291 619 CURVE",
"335 522 OFFCURVE",
"412 431 OFFCURVE",
"542 370 CURVE"
);
}
);
width = 620;
}
);
unicode = 10849;
},
{
glyphname = u1084A;
lastChange = "2017-01-25 21:52:23 +0000";
layers = (
{
layerId = UUID0;
paths = (
{
closed = 1;
nodes = (
"374 -172 OFFCURVE",
"436 27 OFFCURVE",
"436 239 CURVE SMOOTH",
"436 364 LINE SMOOTH",
"436 510 OFFCURVE",
"461 635 OFFCURVE",
"496 704 CURVE",
"411 725 LINE",
"405 711 OFFCURVE",
"401 697 OFFCURVE",
"394 683 CURVE SMOOTH",
"351 594 OFFCURVE",
"284 526 OFFCURVE",
"232 526 CURVE SMOOTH",
"188 526 OFFCURVE",
"164 564 OFFCURVE",
"164 622 CURVE SMOOTH",
"164 645 OFFCURVE",
"166 671 OFFCURVE",
"170 699 CURVE",
"84 724 LINE",
"80 693 OFFCURVE",
"76 659 OFFCURVE",
"76 625 CURVE SMOOTH",
"76 534 OFFCURVE",
"111 446 OFFCURVE",
"219 446 CURVE SMOOTH",
"273 446 OFFCURVE",
"318 467 OFFCURVE",
"354 498 CURVE",
"350 461 OFFCURVE",
"348 422 OFFCURVE",
"348 382 CURVE SMOOTH",
"348 216 LINE SMOOTH",
"348 36 OFFCURVE",
"291 -102 OFFCURVE",
"5 -154 CURVE",
"23 -234 LINE"
);
}
);
width = 574;
}
);
unicode = 1084A;
},
{
glyphname = u1084B;
lastChange = "2017-01-25 21:52:23 +0000";
layers = (
{
layerId = UUID0;
paths = (
{
closed = 1;
nodes = (
"542 -63 LINE",
"555 -37 OFFCURVE",
"588 36 OFFCURVE",
"588 92 CURVE SMOOTH",
"588 133 OFFCURVE",
"562 142 OFFCURVE",
"541 142 CURVE SMOOTH",
"525 142 OFFCURVE",
"490 123 OFFCURVE",
"470 114 CURVE SMOOTH",
"385 77 OFFCURVE",
"316 60 OFFCURVE",
"278 60 CURVE SMOOTH",
"188 60 OFFCURVE",
"166 109 OFFCURVE",
"166 232 CURVE SMOOTH",
"166 347 OFFCURVE",
"196 506 OFFCURVE",
"285 694 CURVE",
"205 723 LINE",
"108 516 OFFCURVE",
"78 355 OFFCURVE",
"78 228 CURVE SMOOTH",
"78 77 OFFCURVE",
"127 -21 OFFCURVE",
"268 -21 CURVE SMOOTH",
"325 -21 OFFCURVE",
"426 3 OFFCURVE",
"497 40 CURVE",
"493 8 OFFCURVE",
"470 -39 OFFCURVE",
"457 -63 CURVE"
);
}
);
width = 597;
}
);
unicode = 1084B;
},
{
glyphname = u1084C;
lastChange = "2017-01-25 21:52:23 +0000";
layers = (
{
layerId = UUID0;
paths = (
{
closed = 1;
nodes = (
"554 111 OFFCURVE",
"632 322 OFFCURVE",
"632 444 CURVE SMOOTH",
"632 487 OFFCURVE",
"626 534 OFFCURVE",
"608 562 CURVE",
"539 551 OFFCURVE",
"485 549 OFFCURVE",
"424 549 CURVE SMOOTH",
"386 549 OFFCURVE",
"346 555 OFFCURVE",
"308 567 CURVE",
"347 639 OFFCURVE",
"378 711 OFFCURVE",
"401 776 CURVE",
"318 809 LINE",
"297 740 OFFCURVE",
"267 671 OFFCURVE",
"231 605 CURVE",
"196 629 OFFCURVE",
"167 661 OFFCURVE",
"148 701 CURVE",
"78 652 LINE",
"100 613 OFFCURVE",
"137 569 OFFCURVE",
"189 535 CURVE",
"138 456 OFFCURVE",
"80 385 OFFCURVE",
"20 332 CURVE",
"82 275 LINE",
"152 336 OFFCURVE",
"214 414 OFFCURVE",
"266 496 CURVE",
"310 479 OFFCURVE",
"363 468 OFFCURVE",
"423 468 CURVE SMOOTH",
"459 468 OFFCURVE",
"497 470 OFFCURVE",
"540 474 CURVE",
"542 463 OFFCURVE",
"544 450 OFFCURVE",
"544 430 CURVE SMOOTH",
"544 333 OFFCURVE",
"465 131 OFFCURVE",
"334 -80 CURVE",
"401 -127 LINE"
);
}
);
width = 710;
}
);
unicode = 1084C;
},
{
glyphname = u1084D;
lastChange = "2017-01-25 21:52:23 +0000";
layers = (
{
layerId = UUID0;
paths = (
{
closed = 1;
nodes = (
"299 45 OFFCURVE",
"358 227 OFFCURVE",
"358 359 CURVE SMOOTH",
"358 401 OFFCURVE",
"349 451 OFFCURVE",
"308 451 CURVE SMOOTH",
"282 451 OFFCURVE",
"216 441 OFFCURVE",
"184 441 CURVE SMOOTH",
"161 441 OFFCURVE",
"151 458 OFFCURVE",
"151 485 CURVE SMOOTH",
"151 551 OFFCURVE",
"199 634 OFFCURVE",
"230 679 CURVE",
"161 727 LINE",
"112 665 OFFCURVE",
"63 568 OFFCURVE",
"63 485 CURVE SMOOTH",
"63 373 OFFCURVE",
"125 360 OFFCURVE",
"156 360 CURVE SMOOTH",
"185 360 OFFCURVE",
"226 370 OFFCURVE",
"250 370 CURVE SMOOTH",
"270 370 OFFCURVE",
"270 335 OFFCURVE",
"270 307 CURVE SMOOTH",
"270 228 OFFCURVE",
"201 40 OFFCURVE",
"109 -85 CURVE",
"180 -127 LINE"
);
}
);
width = 436;
}
);
unicode = 1084D;
},
{
glyphname = u1084E;
lastChange = "2017-01-25 21:52:23 +0000";
layers = (
{
layerId = UUID0;
paths = (
{
closed = 1;
nodes = (
"598 -18 OFFCURVE",
"665 181 OFFCURVE",
"665 467 CURVE SMOOTH",
"665 497 OFFCURVE",
"665 527 OFFCURVE",
"663 559 CURVE",
"591 589 LINE",
"548 541 OFFCURVE",
"453 494 OFFCURVE",
"366 463 CURVE",
"403 532 OFFCURVE",
"421 599 OFFCURVE",
"436 667 CURVE",
"367 727 LINE",
"291 671 OFFCURVE",
"131 608 OFFCURVE",
"39 576 CURVE",
"65 502 LINE",
"186 539 OFFCURVE",
"271 580 OFFCURVE",
"339 618 CURVE",
"320 555 OFFCURVE",
"295 491 OFFCURVE",
"256 433 CURVE",
"286 362 LINE",
"346 365 OFFCURVE",
"491 412 OFFCURVE",
"577 474 CURVE",
"576 224 OFFCURVE",
"543 63 OFFCURVE",
"97 -48 CURVE",
"126 -127 LINE"
);
}
);
width = 743;
}
);
unicode = 1084E;
},
{
glyphname = u1084F;
lastChange = "2017-01-25 21:52:23 +0000";
layers = (
{
layerId = UUID0;
paths = (
{
closed = 1;
nodes = (
"385 378 OFFCURVE",
"445 547 OFFCURVE",
"460 713 CURVE",
"376 722 LINE",
"366 592 OFFCURVE",
"315 459 OFFCURVE",
"221 459 CURVE SMOOTH",
"149 459 OFFCURVE",
"137 517 OFFCURVE",
"137 572 CURVE SMOOTH",
"137 608 OFFCURVE",
"146 650 OFFCURVE",
"164 694 CURVE",
"85 731 LINE",
"63 676 OFFCURVE",
"49 622 OFFCURVE",
"49 574 CURVE SMOOTH",
"49 479 OFFCURVE",
"95 378 OFFCURVE",
"218 378 CURVE SMOOTH"
);
}
);
width = 509;
}
);
unicode = 1084F;
},
{
glyphname = u10850;
lastChange = "2017-01-25 21:52:23 +0000";
layers = (
{
layerId = UUID0;
paths = (
{
closed = 1;
nodes = (
"425 183 OFFCURVE",
"485 389 OFFCURVE",
"485 594 CURVE",
"441 646 OFFCURVE",
"336 703 OFFCURVE",
"234 729 CURVE",
"159 661 OFFCURVE",
"106 614 OFFCURVE",
"49 576 CURVE",
"95 518 LINE",
"151 551 OFFCURVE",
"202 593 OFFCURVE",
"246 635 CURVE",
"309 611 OFFCURVE",
"368 579 OFFCURVE",
"397 554 CURVE",
"392 406 OFFCURVE",
"333 217 OFFCURVE",
"79 42 CURVE",
"130 -24 LINE"
);
}
);
width = 563;
}
);
unicode = 10850;
},
{
glyphname = u10851;
lastChange = "2017-01-25 21:52:23 +0000";
layers = (
{
layerId = UUID0;
paths = (
{
closed = 1;
nodes = (
"227 -24 OFFCURVE",
"261 153 OFFCURVE",
"261 344 CURVE SMOOTH",
"261 390 OFFCURVE",
"260 430 OFFCURVE",
"255 473 CURVE",
"290 456 OFFCURVE",
"324 453 OFFCURVE",
"356 453 CURVE SMOOTH",
"477 453 OFFCURVE",
"540 545 OFFCURVE",
"554 643 CURVE",
"470 669 LINE",
"451 565 OFFCURVE",
"404 533 OFFCURVE",
"349 533 CURVE SMOOTH",
"267 533 OFFCURVE",
"225 602 OFFCURVE",
"170 727 CURVE",
"98 685 LINE",
"138 608 OFFCURVE",
"173 493 OFFCURVE",
"173 351 CURVE SMOOTH",
"173 168 OFFCURVE",
"146 3 OFFCURVE",
"112 -103 CURVE",
"194 -127 LINE"
);
}
);
width = 603;
}
);
unicode = 10851;
},
{
glyphname = u10852;
lastChange = "2017-01-25 21:52:23 +0000";
layers = (
{
layerId = UUID0;
paths = (
{
closed = 1;
nodes = (
"227 -23 OFFCURVE",
"250 83 OFFCURVE",
"258 219 CURVE",
"428 314 OFFCURVE",
"553 472 OFFCURVE",
"553 596 CURVE SMOOTH",
"553 714 OFFCURVE",
"476 724 OFFCURVE",
"424 724 CURVE SMOOTH",
"369 724 OFFCURVE",
"285 695 OFFCURVE",
"209 646 CURVE",
"199 675 OFFCURVE",
"187 702 OFFCURVE",
"174 727 CURVE",
"98 685 LINE",
"138 608 OFFCURVE",
"173 444 OFFCURVE",
"173 301 CURVE SMOOTH",
"173 150 OFFCURVE",
"153 50 OFFCURVE",
"112 -103 CURVE",
"194 -127 LINE"
);
},
{
closed = 1;
nodes = (
"261 325 LINE SMOOTH",
"261 403 OFFCURVE",
"251 490 OFFCURVE",
"231 570 CURVE",
"291 609 OFFCURVE",
"367 644 OFFCURVE",
"406 644 CURVE SMOOTH",
"440 644 OFFCURVE",
"465 637 OFFCURVE",
"465 595 CURVE SMOOTH",
"465 521 OFFCURVE",
"387 394 OFFCURVE",
"261 315 CURVE"
);
}
);
width = 631;
}
);
unicode = 10852;
},
{
glyphname = u10853;
lastChange = "2017-01-25 21:52:23 +0000";
layers = (
{
layerId = UUID0;
paths = (
{
closed = 1;
nodes = (
"510 -104 OFFCURVE",
"526 154 OFFCURVE",
"533 364 CURVE SMOOTH",
"538 510 OFFCURVE",
"558 635 OFFCURVE",
"593 704 CURVE",
"508 725 LINE",
"504 716 OFFCURVE",
"500 710 OFFCURVE",
"497 697 CURVE",
"428 584 OFFCURVE",
"313 557 OFFCURVE",
"258 557 CURVE SMOOTH",
"198 557 OFFCURVE",
"148 583 OFFCURVE",
"132 714 CURVE",
"49 688 LINE",
"63 557 OFFCURVE",
"119 477 OFFCURVE",
"250 477 CURVE SMOOTH",
"330 477 OFFCURVE",
"407 509 OFFCURVE",
"462 551 CURVE",
"455 500 OFFCURVE",
"449 442 OFFCURVE",
"445 382 CURVE SMOOTH",
"429 144 OFFCURVE",
"438 -26 OFFCURVE",
"277 -229 CURVE",
"345 -276 LINE"
);
}
);
width = 671;
}
);
unicode = 10853;
},
{
glyphname = u10854;
lastChange = "2017-01-25 21:52:23 +0000";
layers = (
{
layerId = UUID0;
paths = (
{
closed = 1;
nodes = (
"517 -12 OFFCURVE",
"590 38 OFFCURVE",
"677 140 CURVE SMOOTH",
"742 216 OFFCURVE",
"812 321 OFFCURVE",
"877 443 CURVE",
"795 473 LINE",
"738 368 OFFCURVE",
"676 276 OFFCURVE",
"624 210 CURVE SMOOTH",
"553 121 OFFCURVE",
"489 69 OFFCURVE",
"459 69 CURVE SMOOTH",
"416 69 OFFCURVE",
"364 150 OFFCURVE",
"316 256 CURVE",
"397 359 OFFCURVE",
"460 475 OFFCURVE",
"499 592 CURVE",
"419 624 LINE",
"384 531 OFFCURVE",
"334 432 OFFCURVE",
"278 348 CURVE",
"222 495 OFFCURVE",
"177 657 OFFCURVE",
"166 724 CURVE",
"78 699 LINE",
"107 520 OFFCURVE",
"282 -12 OFFCURVE",
"444 -12 CURVE SMOOTH"
);
}
);
width = 916;
}
);
unicode = 10854;
},
{
glyphname = u10855;
lastChange = "2017-01-25 21:52:23 +0000";
layers = (
{
layerId = UUID0;
paths = (
{
closed = 1;
nodes = (
"141 66 OFFCURVE",
"198 273 OFFCURVE",
"198 479 CURVE SMOOTH",
"198 495 OFFCURVE",
"198 511 OFFCURVE",
"197 527 CURVE",
"298 591 OFFCURVE",
"404 646 OFFCURVE",
"433 646 CURVE SMOOTH",
"451 646 OFFCURVE",
"470 611 OFFCURVE",
"470 597 CURVE SMOOTH",
"470 506 OFFCURVE",
"395 299 OFFCURVE",
"323 147 CURVE",
"405 117 LINE",
"476 261 OFFCURVE",
"558 491 OFFCURVE",
"558 602 CURVE SMOOTH",
"558 640 OFFCURVE",
"511 729 OFFCURVE",
"459 729 CURVE SMOOTH",
"396 729 OFFCURVE",
"292 678 OFFCURVE",
"189 615 CURVE",
"183 655 OFFCURVE",
"175 693 OFFCURVE",
"164 726 CURVE",
"84 697 LINE",
"101 648 OFFCURVE",
"110 562 OFFCURVE",
"110 476 CURVE SMOOTH",
"110 267 OFFCURVE",
"54 95 OFFCURVE",
"-29 -90 CURVE",
"46 -127 LINE"
);
}
);
width = 636;
}
);
unicode = 10855;
},
{
glyphname = u10857;
lastChange = "2017-01-25 21:52:23 +0000";
layers = (
{
layerId = UUID0;
paths = (
{
closed = 1;
nodes = (
"343 45 OFFCURVE",
"356 172 OFFCURVE",
"356 247 CURVE SMOOTH",
"356 284 OFFCURVE",
"354 328 OFFCURVE",
"345 378 CURVE",
"438 379 OFFCURVE",
"539 395 OFFCURVE",
"628 424 CURVE",
"597 500 LINE",
"528 480 OFFCURVE",
"441 465 OFFCURVE",
"357 460 CURVE",
"386 532 OFFCURVE",
"446 608 OFFCURVE",
"509 658 CURVE",
"458 724 LINE",
"395 672 OFFCURVE",
"340 600 OFFCURVE",
"303 526 CURVE",
"284 587 OFFCURVE",
"258 656 OFFCURVE",
"225 728 CURVE",
"145 699 LINE",
"187 610 OFFCURVE",
"216 531 OFFCURVE",
"236 459 CURVE",
"176 462 OFFCURVE",
"124 469 OFFCURVE",
"68 479 CURVE",
"59 399 LINE",
"118 389 OFFCURVE",
"183 382 OFFCURVE",
"256 379 CURVE",
"265 333 OFFCURVE",
"269 291 OFFCURVE",
"269 252 CURVE SMOOTH",
"269 151 OFFCURVE",
"257 49 OFFCURVE",
"239 1 CURVE",
"320 -24 LINE"
);
}
);
width = 687;
}
);
unicode = 10857;
},
{
glyphname = u10858;
lastChange = "2017-01-25 21:52:23 +0000";
layers = (
{
layerId = UUID0;
paths = (
{
closed = 1;
nodes = (
"288 7 OFFCURVE",
"289 26 OFFCURVE",
"289 45 CURVE SMOOTH",
"289 251 OFFCURVE",
"240 539 OFFCURVE",
"184 724 CURVE",
"98 708 LINE",
"156 511 OFFCURVE",
"201 214 OFFCURVE",
"201 39 CURVE SMOOTH",
"201 30 OFFCURVE",
"201 8 OFFCURVE",
"200 0 CURVE",
"287 -10 LINE"
);
}
);
width = 386;
}
);
unicode = 10858;
},
{
glyphname = u10859;
lastChange = "2017-01-25 21:52:23 +0000";
layers = (
{
layerId = UUID0;
paths = (
{
closed = 1;
nodes = (
"288 7 OFFCURVE",
"289 26 OFFCURVE",
"289 45 CURVE SMOOTH",
"289 251 OFFCURVE",
"240 539 OFFCURVE",
"184 724 CURVE",
"98 708 LINE",
"156 511 OFFCURVE",
"201 214 OFFCURVE",
"201 39 CURVE SMOOTH",
"201 30 OFFCURVE",
"201 8 OFFCURVE",
"200 0 CURVE",
"287 -10 LINE"
);
},
{
closed = 1;
nodes = (
"473 190 OFFCURVE",
"501 458 OFFCURVE",
"501 669 CURVE SMOOTH",
"501 724 LINE",
"413 708 LINE",
"413 687 LINE SMOOTH",
"413 465 OFFCURVE",
"380 186 OFFCURVE",
"329 12 CURVE",
"410 -10 LINE"
);
}
);
width = 599;
}
);
unicode = 10859;
},
{
glyphname = u1085A;
lastChange = "2017-01-25 21:52:23 +0000";
layers = (
{
layerId = UUID0;
paths = (
{
closed = 1;
nodes = (
"643 191 OFFCURVE",
"723 498 OFFCURVE",
"752 724 CURVE",
"659 708 LINE",
"626 482 OFFCURVE",
"543 182 OFFCURVE",
"464 12 CURVE",
"546 -10 LINE"
);
},
{
closed = 1;
nodes = (
"288 7 OFFCURVE",
"289 26 OFFCURVE",
"289 45 CURVE SMOOTH",
"289 251 OFFCURVE",
"240 539 OFFCURVE",
"184 724 CURVE",
"98 708 LINE",
"156 511 OFFCURVE",
"201 214 OFFCURVE",
"201 39 CURVE SMOOTH",
"201 30 OFFCURVE",
"201 8 OFFCURVE",
"200 0 CURVE",
"287 -10 LINE"
);
},
{
closed = 1;
nodes = (
"473 190 OFFCURVE",
"501 458 OFFCURVE",
"501 669 CURVE SMOOTH",
"501 724 LINE",
"413 708 LINE",
"413 687 LINE SMOOTH",
"413 465 OFFCURVE",
"380 186 OFFCURVE",
"329 12 CURVE",
"410 -10 LINE"
);
}
);
width = 850;
}
);
unicode = 1085A;
},
{
glyphname = u1085B;
lastChange = "2017-01-25 21:52:23 +0000";
layers = (
{
layerId = UUID0;
paths = (
{
closed = 1;
nodes = (
"669 252 OFFCURVE",
"688 348 OFFCURVE",
"688 430 CURVE SMOOTH",
"688 438 OFFCURVE",
"686 447 OFFCURVE",
"664 454 CURVE SMOOTH",
"587 477 OFFCURVE",
"457 494 OFFCURVE",
"359 494 CURVE SMOOTH",
"256 494 OFFCURVE",
"151 486 OFFCURVE",
"73 473 CURVE",
"83 393 LINE",
"157 406 OFFCURVE",
"247 413 OFFCURVE",
"335 413 CURVE SMOOTH",
"416 413 OFFCURVE",
"518 402 OFFCURVE",
"598 386 CURVE",
"593 328 OFFCURVE",
"574 255 OFFCURVE",
"534 165 CURVE",
"610 126 LINE"
);
}
);
width = 761;
}
);
unicode = 1085B;
},
{
glyphname = u1085C;
lastChange = "2017-01-25 21:52:23 +0000";
layers = (
{
layerId = UUID0;
paths = (
{
closed = 1;
nodes = (
"729 146 OFFCURVE",
"744 229 OFFCURVE",
"744 303 CURVE SMOOTH",
"744 309 OFFCURVE",
"743 320 OFFCURVE",
"725 326 CURVE SMOOTH",
"679 340 OFFCURVE",
"608 353 OFFCURVE",
"537 360 CURVE",
"559 432 OFFCURVE",
"568 492 OFFCURVE",
"568 547 CURVE SMOOTH",
"568 553 OFFCURVE",
"567 565 OFFCURVE",
"552 570 CURVE SMOOTH",
"468 597 OFFCURVE",
"337 611 OFFCURVE",
"240 611 CURVE SMOOTH",
"184 611 OFFCURVE",
"126 608 OFFCURVE",
"73 604 CURVE",
"82 525 LINE",
"125 528 OFFCURVE",
"171 530 OFFCURVE",
"216 530 CURVE SMOOTH",
"296 530 OFFCURVE",
"398 520 OFFCURVE",
"479 503 CURVE",
"476 464 OFFCURVE",
"465 419 OFFCURVE",
"447 366 CURVE",
"437 366 OFFCURVE",
"426 367 OFFCURVE",
"416 367 CURVE SMOOTH",
"360 367 OFFCURVE",
"302 364 OFFCURVE",
"250 360 CURVE",
"258 281 LINE",
"301 284 OFFCURVE",
"347 286 OFFCURVE",
"392 286 CURVE SMOOTH",
"472 286 OFFCURVE",
"574 275 OFFCURVE",
"655 259 CURVE",
"650 208 OFFCURVE",
"635 145 OFFCURVE",
"604 69 CURVE",
"684 38 LINE"
);
}
);
width = 817;
}
);
unicode = 1085C;
},
{
glyphname = u1085D;
lastChange = "2017-01-25 21:52:23 +0000";
layers = (
{
layerId = UUID0;
paths = (
{
closed = 1;
nodes = (
"698 252 OFFCURVE",
"717 348 OFFCURVE",
"717 430 CURVE SMOOTH",
"717 438 OFFCURVE",
"715 447 OFFCURVE",
"693 454 CURVE SMOOTH",
"617 478 OFFCURVE",
"486 494 OFFCURVE",
"389 494 CURVE SMOOTH",
"321 494 OFFCURVE",
"254 491 OFFCURVE",
"204 485 CURVE",
"210 515 OFFCURVE",
"227 573 OFFCURVE",
"250 626 CURVE",
"170 658 LINE",
"146 593 OFFCURVE",
"114 482 OFFCURVE",
"105 392 CURVE",
"180 406 OFFCURVE",
"276 413 OFFCURVE",
"365 413 CURVE SMOOTH",
"445 413 OFFCURVE",
"547 402 OFFCURVE",
"627 386 CURVE",
"623 328 OFFCURVE",
"604 255 OFFCURVE",
"563 165 CURVE",
"640 126 LINE"
);
},
{
closed = 1;
nodes = (
"418 231 OFFCURVE",
"453 256 OFFCURVE",
"453 287 CURVE SMOOTH",
"453 317 OFFCURVE",
"418 343 OFFCURVE",
"375 343 CURVE SMOOTH",
"333 343 OFFCURVE",
"298 317 OFFCURVE",
"298 287 CURVE SMOOTH",
"298 256 OFFCURVE",
"333 231 OFFCURVE",
"375 231 CURVE SMOOTH"
);
}
);
width = 790;
}
);
unicode = 1085D;
},
{
glyphname = u1085E;
lastChange = "2017-01-25 21:52:23 +0000";
layers = (
{
layerId = UUID0;
paths = (
{
closed = 1;
nodes = (
"188 15 OFFCURVE",
"302 104 OFFCURVE",
"358 211 CURVE",
"388 176 OFFCURVE",
"431 157 OFFCURVE",
"494 157 CURVE SMOOTH",
"544 157 OFFCURVE",
"604 171 OFFCURVE",
"680 200 CURVE",
"653 275 LINE",
"587 250 OFFCURVE",
"535 237 OFFCURVE",
"504 237 CURVE SMOOTH",
"414 237 OFFCURVE",
"392 287 OFFCURVE",
"392 410 CURVE SMOOTH",
"392 524 OFFCURVE",
"422 684 OFFCURVE",
"511 872 CURVE",
"431 900 LINE",
"367 764 OFFCURVE",
"333 648 OFFCURVE",
"318 548 CURVE",
"289 571 OFFCURVE",
"250 584 OFFCURVE",
"200 584 CURVE SMOOTH",
"169 584 OFFCURVE",
"135 579 OFFCURVE",
"95 567 CURVE",
"121 492 LINE",
"149 500 OFFCURVE",
"173 503 OFFCURVE",
"190 503 CURVE SMOOTH",
"280 503 OFFCURVE",
"307 454 OFFCURVE",
"307 331 CURVE SMOOTH",
"307 216 OFFCURVE",
"174 112 OFFCURVE",
"73 51 CURVE",
"113 -24 LINE"
);
}
);
width = 753;
}
);
unicode = 1085E;
},
{
glyphname = u1085F;
lastChange = "2017-01-25 21:52:23 +0000";
layers = (
{
layerId = UUID0;
paths = (
{
closed = 1;
nodes = (
"688 86 OFFCURVE",
"707 182 OFFCURVE",
"707 264 CURVE SMOOTH",
"707 272 OFFCURVE",
"705 282 OFFCURVE",
"683 288 CURVE SMOOTH",
"668 292 LINE",
"704 385 OFFCURVE",
"717 460 OFFCURVE",
"717 527 CURVE SMOOTH",
"717 535 OFFCURVE",
"715 544 OFFCURVE",
"693 551 CURVE SMOOTH",
"617 574 OFFCURVE",
"486 591 OFFCURVE",
"389 591 CURVE SMOOTH",
"321 591 OFFCURVE",
"254 588 OFFCURVE",
"204 583 CURVE",
"210 612 OFFCURVE",
"227 671 OFFCURVE",
"250 724 CURVE",
"170 755 LINE",
"146 690 OFFCURVE",
"114 580 OFFCURVE",
"105 490 CURVE",
"180 503 OFFCURVE",
"276 510 OFFCURVE",
"365 510 CURVE SMOOTH",
"445 510 OFFCURVE",
"547 500 OFFCURVE",
"627 483 CURVE",
"624 436 OFFCURVE",
"610 378 OFFCURVE",
"583 310 CURVE",
"517 321 OFFCURVE",
"440 328 OFFCURVE",
"378 328 CURVE SMOOTH",
"291 328 OFFCURVE",
"201 322 OFFCURVE",
"129 312 CURVE",
"139 232 LINE",
"205 242 OFFCURVE",
"280 247 OFFCURVE",
"354 247 CURVE SMOOTH",
"435 247 OFFCURVE",
"537 236 OFFCURVE",
"617 220 CURVE",
"612 162 OFFCURVE",
"593 89 OFFCURVE",
"553 -1 CURVE",
"629 -40 LINE"
);
},
{
closed = 1;
nodes = (
"474 459 LINE",
"434 463 OFFCURVE",
"395 465 OFFCURVE",
"361 465 CURVE SMOOTH",
"334 465 OFFCURVE",
"307 464 OFFCURVE",
"281 463 CURVE",
"284 383 LINE",
"302 384 OFFCURVE",
"319 384 OFFCURVE",
"337 384 CURVE SMOOTH",
"375 384 OFFCURVE",
"419 382 OFFCURVE",
"462 378 CURVE"
);
}
);
width = 790;
}
);
unicode = 1085F;
},
